<svg version="1.2" xmlns="http://www.w3.org/2000/svg" viewBox="0 0 1440 320" width="1440" height="320"><style>.a{fill:#fff}</style><path class="a" d="m0 160l34.3 10.7c34.3 10.3 102.7 32.3 171.7 32 68.3 0.3 137-21.7 205-48 69-26.7 138-58.7 206-42.7 68.7 16 137 80 206 101.3 68.4 21.7 137-0.3 206-16 68.1-16.3 137-26.3 205-26.6 68.9 0.3 137 10.3 172 16l34 5.3v128h-34.3c-34.3 0-102.7 0-171.7 0-68.3 0-137 0-205 0-69 0-138 0-206 0-68.7 0-137 0-206 0-68.4 0-137 0-206 0-68.1 0-137 0-205 0-68.9 0-137 0-172 0h-34z"/></svg>